<svg width="512" height="512" viewBox="0 0 512 512" fill="none" xmlns="http://www.w3.org/2000/svg">
  <defs>
    <linearGradient id="bg" x1="92" y1="64" x2="420" y2="448" gradientUnits="userSpaceOnUse">
      <stop stop-color="#06101E"/>
      <stop offset="1" stop-color="#030508"/>
    </linearGradient>
    <linearGradient id="edge" x1="150" y1="118" x2="372" y2="404" gradientUnits="userSpaceOnUse">
      <stop stop-color="#00E5FF"/>
      <stop offset="0.55" stop-color="#8F7CFF"/>
      <stop offset="1" stop-color="#E040FB"/>
    </linearGradient>
    <linearGradient id="plate" x1="140" y1="120" x2="372" y2="404" gradientUnits="userSpaceOnUse">
      <stop stop-color="#EAF7FF" stop-opacity="0.95"/>
      <stop offset="0.25" stop-color="#B6D6E6" stop-opacity="0.55"/>
      <stop offset="0.6" stop-color="#203245" stop-opacity="0.85"/>
      <stop offset="1" stop-color="#07111C"/>
    </linearGradient>
  </defs>

  <rect x="64" y="64" width="384" height="384" rx="92" fill="url(#bg)"/>

  <path d="M168 164C168 152.954 176.954 144 188 144H220C227.732 144 234.797 148.444 238.2 155.4L256 192.2L273.8 155.4C277.203 148.444 284.268 144 292 144H324C335.046 144 344 152.954 344 164V348C344 359.046 335.046 368 324 368H302C290.954 368 282 359.046 282 348V272L269.2 297.6C265.8 304.4 258.9 308.6 251.4 308.6H260.6C253.1 308.6 246.2 304.4 242.8 297.6L230 272V348C230 359.046 221.046 368 210 368H188C176.954 368 168 359.046 168 348V164Z" fill="url(#plate)"/>
  <path d="M188 144H220C227.732 144 234.797 148.444 238.2 155.4L256 192.2L273.8 155.4C277.203 148.444 284.268 144 292 144H324C335.046 144 344 152.954 344 164V348C344 359.046 335.046 368 324 368H302C290.954 368 282 359.046 282 348V272L269.2 297.6C265.8 304.4 258.9 308.6 251.4 308.6H260.6C253.1 308.6 246.2 304.4 242.8 297.6L230 272V348C230 359.046 221.046 368 210 368H188C176.954 368 168 359.046 168 348V164C168 152.954 176.954 144 188 144Z" stroke="url(#edge)" stroke-width="10" stroke-linejoin="round"/>
</svg>
